<?xml version="1.0" encoding="utf-8"?>
<!-- Generator: Adobe Illustrator 24.1.1, SVG Export Plug-In . SVG Version: 6.00 Build 0)  -->
<svg version="1.1" id="Layer_1" xmlns="http://www.w3.org/2000/svg" xmlns:xlink="http://www.w3.org/1999/xlink" x="0px" y="0px"
	 viewBox="0 0 86.72 130.96" style="enable-background:new 0 0 86.72 130.96;" xml:space="preserve">
<style type="text/css">
	.st0{clip-path:url(#SVGID_2_);fill:#0095DB;}
	.st1{clip-path:url(#SVGID_4_);fill:#FAB400;}
	.st2{clip-path:url(#SVGID_4_);fill:#E2241C;}
	.st3{clip-path:url(#SVGID_4_);fill:#76B82A;}
</style>
<g>
	<defs>
		<rect id="SVGID_1_" width="86.72" height="130.96"/>
	</defs>
	<clipPath id="SVGID_2_">
		<use xlink:href="#SVGID_1_"  style="overflow:visible;"/>
	</clipPath>
	<path class="st0" d="M42.75,103.22c21.26,0,38.5-17.24,38.5-38.5s-17.24-38.5-38.5-38.5s-38.5,17.24-38.5,38.5
		S21.49,103.22,42.75,103.22"/>
</g>
<g>
	<defs>
		<rect id="SVGID_3_" width="86.72" height="130.96"/>
	</defs>
	<clipPath id="SVGID_4_">
		<use xlink:href="#SVGID_3_"  style="overflow:visible;"/>
	</clipPath>
	<path class="st1" d="M15.68,43.18c8.66,0,15.68-7.02,15.68-15.68c0-8.66-7.02-15.68-15.68-15.68S0,18.84,0,27.5
		C0,36.16,7.02,43.18,15.68,43.18"/>
	<path class="st2" d="M7.87,111.09c4.35,0,7.87-3.52,7.87-7.87s-3.52-7.87-7.87-7.87S0,98.88,0,103.22S3.52,111.09,7.87,111.09"/>
	<path class="st3" d="M37.03,15.74c4.35,0,7.87-3.52,7.87-7.87S41.38,0,37.03,0s-7.87,3.52-7.87,7.87S32.68,15.74,37.03,15.74"/>
	<path class="st3" d="M39.07,130.96c10.97,0,19.87-8.89,19.87-19.87c0-10.97-8.89-19.87-19.87-19.87s-19.87,8.9-19.87,19.87
		C19.2,122.06,28.09,130.96,39.07,130.96"/>
</g>
</svg>
