<?xml version="1.0" encoding="utf-8"?>
<!-- Generator: Adobe Illustrator 24.1.1, SVG Export Plug-In . SVG Version: 6.00 Build 0)  -->
<svg version="1.1" id="Layer_1" xmlns="http://www.w3.org/2000/svg" xmlns:xlink="http://www.w3.org/1999/xlink" x="0px" y="0px"
	 viewBox="0 0 29.26 41.16" style="enable-background:new 0 0 29.26 41.16;" xml:space="preserve">
<style type="text/css">
	.st0{fill:none;stroke:#000000;stroke-width:1.9686;}
</style>
<g transform="matrix(-.84355 0 0 -.88405 541.16 423.06)">
	<path d="M620.88,473.79c0,2.63-3.14,4.76-7.02,4.76c-3.88,0-7.02-2.13-7.02-4.76s3.14-4.76,7.02-4.76
		C617.73,469.02,620.88,471.16,620.88,473.79z"/>
	<path d="M641.09,466.74c0,2.63-3.14,4.76-7.02,4.76c-3.88,0-7.02-2.13-7.02-4.76c0-2.63,3.14-4.76,7.02-4.76
		C637.94,461.97,641.09,464.11,641.09,466.74z"/>
	<path class="st0" d="M619.86,473.89l-1.99-35.59l20.67-5.22l-20.06,6.53l19.62-5.04l2.25,32.15"/>
</g>
</svg>
