<?xml version="1.0" encoding="utf-8"?>
<!-- Generator: Adobe Illustrator 24.1.1, SVG Export Plug-In . SVG Version: 6.00 Build 0)  -->
<svg version="1.1" id="Layer_1" xmlns="http://www.w3.org/2000/svg" xmlns:xlink="http://www.w3.org/1999/xlink" x="0px" y="0px"
	 viewBox="0 0 155.77 88.47" style="enable-background:new 0 0 155.77 88.47;" xml:space="preserve">
<style type="text/css">
	.st0{clip-path:url(#SVGID_2_);fill:#E2241C;}
	.st1{clip-path:url(#SVGID_2_);fill:#FAB400;}
	.st2{clip-path:url(#SVGID_2_);fill:#76B82A;}
	.st3{clip-path:url(#SVGID_2_);fill:#0095DB;}
</style>
<g>
	<defs>
		<rect id="SVGID_1_" y="0" width="155.77" height="88.47"/>
	</defs>
	<clipPath id="SVGID_2_">
		<use xlink:href="#SVGID_1_"  style="overflow:visible;"/>
	</clipPath>
	<path class="st0" d="M104.83,62.47c13.02,0,23.57-10.55,23.57-23.57c0-13.02-10.56-23.57-23.57-23.57S81.26,25.88,81.26,38.9
		C81.26,51.92,91.81,62.47,104.83,62.47"/>
	<path class="st1" d="M142.18,84.06c7.51,0,13.6-6.09,13.6-13.6c0-7.51-6.09-13.6-13.6-13.6c-7.51,0-13.6,6.09-13.6,13.6
		C128.58,77.98,134.66,84.06,142.18,84.06"/>
	<path class="st2" d="M59.43,88.47c20.2,0,36.57-16.38,36.57-36.58S79.63,15.32,59.43,15.32S22.86,31.7,22.86,51.9
		S39.23,88.47,59.43,88.47"/>
	<path class="st3" d="M15.32,30.65c8.46,0,15.32-6.86,15.32-15.32S23.79,0,15.32,0S0,6.86,0,15.32S6.86,30.65,15.32,30.65"/>
	<path class="st1" d="M81.72,15.74c4.35,0,7.87-3.52,7.87-7.87S86.07,0,81.72,0s-7.87,3.52-7.87,7.87S77.37,15.74,81.72,15.74"/>
</g>
</svg>
