<?xml version="1.0" standalone="no"?>
<!DOCTYPE svg PUBLIC "-//W3C//DTD SVG 20010904//EN"
 "http://www.w3.org/TR/2001/REC-SVG-20010904/DTD/svg10.dtd">
<svg version="1.0" xmlns="http://www.w3.org/2000/svg"
 width="55.000000pt" height="41.000000pt" viewBox="0 0 55.000000 41.000000"
 preserveAspectRatio="xMidYMid meet">

<g transform="translate(0.000000,41.000000) scale(0.100000,-0.100000)"
fill="#000000" stroke="none">
<path d="M32 378 c-7 -7 -12 -23 -11 -37 0 -20 27 -49 120 -129 66 -56 126
-102 134 -102 8 0 68 46 134 103 93 79 120 108 120 127 1 15 -4 31 -11 38 -17
17 -469 17 -486 0z"/>
<path d="M20 167 c0 -75 4 -117 12 -125 17 -17 469 -17 486 0 12 12 18 238 6
238 -3 0 -55 -43 -115 -95 -73 -63 -118 -95 -134 -95 -16 0 -61 32 -134 95
-60 52 -112 95 -115 95 -3 0 -6 -51 -6 -113z"/>
</g>
</svg>
