<?xml version="1.0" encoding="utf-8"?>
<!-- Generator: Adobe Illustrator 24.1.1, SVG Export Plug-In . SVG Version: 6.00 Build 0)  -->
<svg version="1.1" id="Layer_1" xmlns="http://www.w3.org/2000/svg" xmlns:xlink="http://www.w3.org/1999/xlink" x="0px" y="0px"
	 viewBox="0 0 93.97 145.08" style="enable-background:new 0 0 93.97 145.08;" xml:space="preserve">
<style type="text/css">
	.st0{clip-path:url(#SVGID_2_);fill:#76B82A;}
	.st1{clip-path:url(#SVGID_2_);fill:#E2241C;}
	.st2{clip-path:url(#SVGID_2_);fill:#FAB400;}
	.st3{clip-path:url(#SVGID_2_);fill:#0095DB;}
</style>
<g>
	<defs>
		<rect id="SVGID_1_" width="93.97" height="145.08"/>
	</defs>
	<clipPath id="SVGID_2_">
		<use xlink:href="#SVGID_1_"  style="overflow:visible;"/>
	</clipPath>
	<path class="st0" d="M67.73,145.08c8.46,0,15.32-6.86,15.32-15.32s-6.86-15.32-15.32-15.32s-15.32,6.86-15.32,15.32
		S59.27,145.08,67.73,145.08"/>
	<path class="st1" d="M61.16,69.53c13.02,0,23.57-10.55,23.57-23.57c0-13.02-10.56-23.57-23.57-23.57S37.59,32.93,37.59,45.95
		C37.59,58.97,48.14,69.53,61.16,69.53"/>
	<path class="st2" d="M44.54,123.81c20.2,0,36.58-16.37,36.58-36.57S64.74,50.66,44.54,50.66S7.96,67.03,7.96,87.23
		S24.34,123.81,44.54,123.81"/>
	<path class="st3" d="M63.92,15.74c4.35,0,7.87-3.52,7.87-7.87S68.26,0,63.92,0s-7.87,3.52-7.87,7.87S59.57,15.74,63.92,15.74"/>
</g>
</svg>
