<?xml version="1.0" standalone="no"?>
<!DOCTYPE svg PUBLIC "-//W3C//DTD SVG 20010904//EN"
 "http://www.w3.org/TR/2001/REC-SVG-20010904/DTD/svg10.dtd">
<svg version="1.0" xmlns="http://www.w3.org/2000/svg"
 width="51.000000pt" height="49.000000pt" viewBox="0 0 51.000000 49.000000"
 preserveAspectRatio="xMidYMid meet">

<g transform="translate(0.000000,49.000000) scale(0.100000,-0.100000)"
fill="#000000" stroke="none">
<path d="M71 424 c-40 -33 -41 -80 -4 -155 35 -70 152 -187 222 -222 75 -37
122 -36 155 4 34 40 33 65 -5 100 -35 32 -73 37 -100 13 -25 -23 -49 -11 -113
56 -59 61 -66 79 -41 100 24 20 18 65 -14 99 -35 38 -60 39 -100 5z"/>
</g>
</svg>
