<?xml version="1.0" encoding="utf-8"?>
<!-- Generator: Adobe Illustrator 24.1.1, SVG Export Plug-In . SVG Version: 6.00 Build 0)  -->
<svg version="1.1" id="Layer_1" xmlns="http://www.w3.org/2000/svg" xmlns:xlink="http://www.w3.org/1999/xlink" x="0px" y="0px"
	 viewBox="0 0 443.14 118.65" style="enable-background:new 0 0 443.14 118.65;" xml:space="preserve">
<style type="text/css">
	.st0{fill:none;stroke:#000000;}
	.st1{stroke:#000000;stroke-width:1.5817;stroke-linecap:round;stroke-linejoin:round;}
	.st2{stroke:#000000;stroke-width:1.4;stroke-linecap:round;stroke-linejoin:round;stroke-miterlimit:4;}
	.st3{fill:none;stroke:#000000;stroke-width:1.7;}
	.st4{fill:none;stroke:#000000;stroke-width:1.9686;}
	.st5{fill:none;stroke:#000000;stroke-width:1.2999;}
	.st6{stroke:#000000;stroke-linecap:round;stroke-linejoin:round;}
	.st7{fill:none;stroke:#000000;stroke-width:3.5;}
</style>
<g transform="translate(-93.429 -112.58)">
	<path class="st0" d="M95,178.79c16.5,22.33,105.06-57.03,132.86-57.86c21.77-0.65-1.83,53.54,17.86,62.86
		c46.94,22.21,94.29-80.53,142.86-62.14c14.74,5.58,5.33,37.08,20,42.86c42.54,16.74,127.14-51.43,127.14-51.43"/>
	<path class="st0" d="M94.64,189c16.5,22.33,105.06-57.02,132.86-57.86c21.77-0.65-1.83,53.54,17.86,62.86
		c46.94,22.21,94.29-80.53,142.86-62.14c14.74,5.58,5.33,37.08,20,42.86c42.54,16.74,127.14-51.43,127.14-51.43"/>
	<path class="st0" d="M95.36,199c16.5,22.33,105.06-57.02,132.86-57.86c21.77-0.65-1.83,53.54,17.86,62.86
		c46.94,22.21,94.29-80.53,142.86-62.14c14.74,5.58,5.33,37.08,20,42.86c42.54,16.74,127.14-51.43,127.14-51.43"/>
	<path class="st0" d="M94.64,211.14c16.5,22.33,105.06-57.03,132.86-57.86c21.77-0.65-1.83,53.54,17.86,62.86
		c46.94,22.21,94.29-80.53,142.86-62.14c14.74,5.58,5.33,37.08,20,42.86c42.54,16.74,127.14-51.43,127.14-51.43"/>
	<path class="st0" d="M93.93,222.57c16.5,22.33,105.06-57.02,132.86-57.86c21.77-0.65-1.83,53.54,17.86,62.86
		c46.94,22.21,94.29-80.53,142.86-62.14c14.74,5.58,5.33,37.08,20,42.86c42.54,16.74,127.14-51.43,127.14-51.43"/>
	<g transform="matrix(.80217 -.27436 .24665 .89229 -59.428 8.1338)">
		<path d="M182.86,270.22c0,3.16-4,5.71-8.93,5.71s-8.93-2.56-8.93-5.71c0-3.16,4-5.71,8.93-5.71S182.86,267.06,182.86,270.22z"/>
		<path class="st1" d="M182.28,270.36l-2.86-47.58c17.67,12.39,14.32,12.75,10.69,24.18c13.84-13.45,3.34-17.74-10.83-24.37"/>
	</g>
	<g transform="matrix(.84779 .00167 -.05721 .92399 126.75 -30.959)">
		<path d="M182.86,270.22c0,3.16-4,5.71-8.93,5.71s-8.93-2.56-8.93-5.71c0-3.16,4-5.71,8.93-5.71S182.86,267.06,182.86,270.22z"/>
		<path class="st1" d="M182.28,270.36l-2.86-47.58c17.67,12.39,14.32,12.75,10.69,24.18c13.84-13.45,3.34-17.74-10.83-24.37"/>
	</g>
	<g transform="matrix(.96741 -.25321 .25321 .96741 -19.363 15.795)">
		<path d="M367.54,209.9c0.78-2.82-1.8-6.2-5.75-7.55c-3.96-1.35-7.79-0.17-8.57,2.65c-0.78,2.82,1.8,6.2,5.75,7.55
			S366.76,212.72,367.54,209.9z"/>
		<path class="st2" d="M354.12,204.69l-14.03,41.67c17.23-6.21,14.63-7.45,14.54-18.64c7.79,15.8-1.7,16.74-14.7,18.77"/>
	</g>
	<g transform="matrix(.96741 -.25321 .25321 .96741 -177.62 27.627)">
		<path d="M367.54,209.9c0.78-2.82-1.8-6.2-5.75-7.55c-3.96-1.35-7.79-0.17-8.57,2.65c-0.78,2.82,1.8,6.2,5.75,7.55
			S366.76,212.72,367.54,209.9z"/>
		<path class="st2" d="M354.12,204.69l-14.03,41.67c17.23-6.21,14.63-7.45,14.54-18.64c7.79,15.8-1.7,16.74-14.7,18.77"/>
	</g>
	<g transform="translate(195.16 -91.314)">
		<path d="M252.63,294.41c0,2.63-3.14,4.76-7.02,4.76c-3.88,0-7.02-2.13-7.02-4.76c0-2.63,3.14-4.76,7.02-4.76
			C249.49,289.65,252.63,291.78,252.63,294.41z"/>
		<path d="M272.84,287.36c0,2.63-3.14,4.76-7.02,4.76c-3.88,0-7.02-2.13-7.02-4.76s3.14-4.76,7.02-4.76
			C269.7,282.6,272.84,284.73,272.84,287.36z"/>
		<path class="st3" d="M251.77,294.21l-2.14-35.29l20.83-5.22l-20.21,6.53l19.62-5.04l2.12,31.71"/>
	</g>
	<g transform="matrix(-.84355 0 0 -.88405 541.16 423.06)">
		<path d="M252.63,294.41c0,2.63-3.14,4.76-7.02,4.76s-7.02-2.13-7.02-4.76s3.14-4.76,7.02-4.76S252.63,291.78,252.63,294.41z"/>
		<path d="M272.84,287.36c0,2.63-3.14,4.76-7.02,4.76c-3.88,0-7.02-2.13-7.02-4.76c0-2.63,3.14-4.76,7.02-4.76
			S272.84,284.73,272.84,287.36z"/>
		<path class="st4" d="M251.62,294.51l-1.99-35.59l20.67-5.22l-20.06,6.53l19.62-5.04l2.25,32.15"/>
	</g>
	<path class="st5" d="M190.2,164.62c1.17,2.24-0.48,5.49-3.67,7.26c-3.19,1.77-6.73,1.4-7.89-0.84c-1.17-2.24,0.48-5.49,3.67-7.26
		C185.5,162.01,189.03,162.39,190.2,164.62z"/>
	<path class="st0" d="M291.14,217.19l0.73-43.12"/>
	<path class="st0" d="M106.22,182.11l-0.24,43.61"/>
	<path class="st0" d="M109.88,224.99l-0.24-43.37"/>
	<path class="st6" d="M115.24,197.58c0,0.87-0.55,1.58-1.22,1.58s-1.22-0.71-1.22-1.58s0.55-1.58,1.22-1.58
		S115.24,196.71,115.24,197.58z"/>
	<path class="st6" d="M115.48,206.72c0,0.87-0.55,1.58-1.22,1.58s-1.22-0.71-1.22-1.58s0.55-1.58,1.22-1.58
		S115.48,205.84,115.48,206.72z"/>
	<path class="st0" d="M480.74,149.07L484.5,190"/>
	<path class="st7" d="M506.72,151.65l7.85-5.16"/>
	<path d="M345.57,136.85c4.99,4.57,4.07,9.49,4.45,10.1l7.9,3.9c-11.36-2.58-8.03,9.89,1.35,12.42c-9.57-10.73-5.64-8.04,0.86-12.08
		c-6.54-5.6-2.37-9.31-4.45-10.43L345.57,136.85L345.57,136.85L345.57,136.85z"/>
	<g transform="translate(54.61 -59.086)">
		<path class="st0" d="M367.64,233.4c-4.96,2.46-7.97-2.18-9.3-2.9c-1.29-0.7-3.25,1.43-3.32,2.9c-0.07,1.32,0.99,3.27,2.43,3.37
			c6.38-0.69,10.35-2.6,17.2-8.79l-17.48,38.05"/>
		<path d="M356.9,236.17c-0.74-0.44-1.36-1.44-1.47-2.37c-0.17-1.37,1.51-3.38,2.59-3.11c0.13,0.03,0.74,0.5,1.36,1.03
			c2,1.72,3.22,2.45,4.69,2.78l0.8,0.19l-0.92,0.32c-1.33,0.47-3.11,0.9-4.66,1.14C357.62,236.4,357.29,236.41,356.9,236.17
			L356.9,236.17z"/>
	</g>
</g>
</svg>
